<svg width="30" height="132" viewBox="0 0 30 132" fill="none" xmlns="http://www.w3.org/2000/svg">
<path d="M12.7279 130C12.7279 131.105 13.6234 132 14.7279 132C15.8325 132 16.7279 131.105 16.7279 130H14.7279H12.7279ZM16.1421 0.585786C15.3611 -0.195262 14.0948 -0.195262 13.3137 0.585786L0.585785 13.3137C-0.195264 14.0948 -0.195264 15.3611 0.585785 16.1421C1.36683 16.9232 2.63316 16.9232 3.41421 16.1421L14.7279 4.82843L26.0416 16.1421C26.8227 16.9232 28.089 16.9232 28.8701 16.1421C29.6511 15.3611 29.6511 14.0948 28.8701 13.3137L16.1421 0.585786ZM14.7279 130H16.7279L16.7279 2H14.7279H12.7279L12.7279 130H14.7279Z" fill="#0a0a0a"/>
</svg>
